<?xml version="1.0" encoding="UTF-8" standalone="no"?>
<!-- Created with Inkscape (http://www.inkscape.org/) -->

<svg
   width="210mm"
   height="297mm"
   viewBox="0 0 210 297"
   version="1.1"
   id="svg5"
   inkscape:version="1.2.2 (b0a8486541, 2022-12-01)"
   sodipodi:docname="template.svg"
   xmlns:inkscape="http://www.inkscape.org/namespaces/inkscape"
   xmlns:sodipodi="http://sodipodi.sourceforge.net/DTD/sodipodi-0.dtd"
   xmlns="http://www.w3.org/2000/svg"
   xmlns:svg="http://www.w3.org/2000/svg">
  <sodipodi:namedview
     id="namedview7"
     pagecolor="#ffffff"
     bordercolor="#666666"
     borderopacity="1.0"
     inkscape:showpageshadow="2"
     inkscape:pageopacity="0.0"
     inkscape:pagecheckerboard="0"
     inkscape:deskcolor="#d1d1d1"
     inkscape:document-units="mm"
     showgrid="false"
     inkscape:zoom="4.525404"
     inkscape:cx="61.983416"
     inkscape:cy="532.54913"
     inkscape:window-width="1443"
     inkscape:window-height="903"
     inkscape:window-x="1533"
     inkscape:window-y="847"
     inkscape:window-maximized="0"
     inkscape:current-layer="layer1" />
  <defs
     id="defs2">
    <inkscape:path-effect
       effect="skeletal"
       id="path-effect1149"
       is_visible="true"
       lpeversion="1"
       pattern="#path1121"
       copytype="repeated_stretched"
       prop_scale="1"
       scale_y_rel="false"
       spacing="-0.1"
       normal_offset="0"
       tang_offset="0"
       prop_units="false"
       vertical_pattern="false"
       hide_knot="false"
       fuse_tolerance="0" />
    <inkscape:path-effect
       effect="knot"
       id="path-effect1147"
       is_visible="true"
       lpeversion="1"
       switcher_size="15"
       interruption_width="3"
       prop_to_stroke_width="true"
       add_stroke_width="inkscape_1.0_and_up"
       both="false"
       inverse_width="false"
       add_other_stroke_width="inkscape_1.0_and_up"
       crossing_points_vector="" />
    <inkscape:path-effect
       effect="spiro"
       id="path-effect1125"
       is_visible="true"
       lpeversion="1" />
    <inkscape:path-effect
       effect="skeletal"
       id="path-effect958"
       is_visible="true"
       lpeversion="1"
       pattern="#path848"
       copytype="repeated_stretched"
       prop_scale="1"
       scale_y_rel="false"
       spacing="-1.1"
       normal_offset="0"
       tang_offset="0"
       prop_units="false"
       vertical_pattern="false"
       hide_knot="false"
       fuse_tolerance="0" />
  </defs>
  <g
     inkscape:label="Layer 1"
     inkscape:groupmode="layer"
     id="layer1">
    <path
       style="fill:none;fill-rule:evenodd;stroke-width:0.265;stroke-linecap:round;stroke-linejoin:round;stop-color:#000000;stroke-dasharray:none;stroke:#000000;stroke-opacity:1"
       d="M 11.999966,124.21143 31.672741,94.578153 67.898366,98.489282 88.90025,125.01014"
       id="path236" />
    <path
       style="fill:none;fill-rule:evenodd;stroke:#000000;stroke-width:0.264999;stroke-linecap:round;stroke-linejoin:round;stroke-dasharray:none;stroke-opacity:1;stop-color:#000000"
       d="m 14.549687,162.07178 c 0.163498,0.406 0.151864,0.64222 0.269381,0.83215 0.392806,0.63488 0.630438,0.42962 0.367553,1.35843 -0.32092,-0.38703 -0.697556,-0.42928 -0.769253,-0.90055 -0.08719,-0.57302 -0.0122,-0.8388 0.132319,-1.29003 z m 0.229748,-0.84493 c 0.155103,0.41009 0.139001,0.64657 0.253202,0.83912 0.382566,0.64502 0.623654,0.4402 0.345811,1.36838 -0.316403,-0.3934 -0.693659,-0.44221 -0.757011,-0.91638 -0.07695,-0.57587 0.0039,-0.84245 0.157998,-1.29112 z m 0.248645,-0.84139 c 0.145659,0.41389 0.124644,0.65024 0.234973,0.84532 0.370418,0.655 0.615066,0.45128 0.320828,1.37687 -0.31061,-0.39976 -0.687798,-0.45578 -0.741778,-0.93224 -0.0655,-0.578 0.02172,-0.8448 0.185977,-1.28995 z m 0.268857,-0.83612 c 0.135168,0.41738 0.108796,0.65321 0.214694,0.85076 0.356354,0.6648 0.604689,0.46283 0.292602,1.38389 -0.303537,-0.40611 -0.679969,-0.47 -0.723553,-0.94815 -0.05283,-0.57939 0.04118,-0.84586 0.216257,-1.2865 z m 0.290385,-0.82915 c 0.123627,0.4206 0.09145,0.6555 0.192367,0.85546 0.340357,0.67443 0.592533,0.47486 0.261133,1.38942 -0.295188,-0.41243 -0.670175,-0.48485 -0.702337,-0.96408 -0.03895,-0.58005 0.06232,-0.8456 0.248837,-1.2808 z m 0.313229,-0.82043 c 0.111038,0.4235 0.07262,0.65709 0.16799,0.85939 0.322414,0.6839 0.578613,0.48736 0.226422,1.39348 -0.28556,-0.41873 -0.658415,-0.50036 -0.678129,-0.98005 -0.02385,-0.57999 0.08514,-0.84404 0.283717,-1.27282 z m 0.337389,-0.81001 c 0.0974,0.42612 0.05229,0.658 0.141563,0.86256 0.302509,0.6932 0.562948,0.50037 0.188469,1.39608 -0.274654,-0.42503 -0.644689,-0.5165 -0.65093,-0.99605 -0.0076,-0.57923 0.109647,-0.84118 0.320898,-1.26259 z m 0.362864,-0.79786 c 0.08272,0.42844 0.03047,0.65823 0.113086,0.86498 0.280625,0.70232 0.545554,0.51385 0.147273,1.3972 -0.262469,-0.43131 -0.628995,-0.5333 -0.620738,-1.01209 0.0099,-0.57775 0.135833,-0.83698 0.360379,-1.25009 z m 0.389654,-0.78398 c 0.06698,0.43047 0.0072,0.65775 0.08256,0.86663 0.25674,0.71127 0.526449,0.52783 0.102835,1.39685 -0.249008,-0.43757 -0.611338,-0.55073 -0.587557,-1.02816 0.02865,-0.57558 0.163704,-0.83146 0.40216,-1.23532 z m 0.417762,-0.76839 c 0.0502,0.4322 -0.01764,0.65659 0.04999,0.86753 0.230837,0.72001 0.505653,0.54232 0.05515,1.39502 -0.234269,-0.44381 -0.591713,-0.56881 -0.551382,-1.04427 0.04856,-0.5727 0.193258,-0.8246 0.446241,-1.21828 z m 0.447184,-0.75108 c 0.03237,0.43364 -0.04394,0.65474 0.01536,0.86767 0.202896,0.72854 0.483186,0.55736 0.0042,1.39173 -0.213569,-0.44039 -0.568769,-0.59858 -0.512216,-1.06041 0.06968,-0.56915 0.224497,-0.8164 0.492623,-1.19899 z m 0.477922,-0.73204 c 0.01349,0.43479 -0.07173,0.65221 -0.02131,0.86706 0.172902,0.73682 0.459065,0.57294 -0.04994,1.38695 -0.196404,-0.44592 -0.544664,-0.61856 -0.470058,-1.07658 0.092,-0.56492 0.257413,-0.80684 0.541304,-1.17743 z m 0.509977,-0.71127 c -0.0064,0.43563 -0.101013,0.64897 -0.06003,0.86568 0.140839,0.74482 0.433303,0.58912 -0.107343,1.38071 -0.178045,-0.45146 -0.518509,-0.63919 -0.42491,-1.0928 0.115541,-0.56003 0.292003,-0.79592 0.592287,-1.15359 z m 0.543346,-0.6888 c -0.02741,0.43619 -0.131788,0.64506 -0.100806,0.86355 0.106698,0.75251 0.405908,0.60594 -0.167994,1.37299 -0.158496,-0.457 -0.4903,-0.66041 -0.37677,-1.10903 0.140303,-0.55448 0.328259,-0.78363 0.64557,-1.12751 z m 0.578031,-0.66459 c -0.04944,0.43645 -0.164055,0.64046 -0.143627,0.86066 0.07048,0.75983 0.376882,0.62343 -0.231888,1.3638 -0.137757,-0.46257 -0.460035,-0.68225 -0.325637,-1.12531 0.166298,-0.54829 0.36617,-0.76995 0.701152,-1.09915 z m 0.615806,-0.63846 c -0.03,0.17309 -0.06609,0.30594 -0.09999,0.42115 -0.05092,0.17407 -0.09589,0.30203 -0.09028,0.43566 0.03219,0.76673 0.346215,0.64165 -0.299023,1.35314 -0.115832,-0.46817 -0.427715,-0.70468 -0.271514,-1.14163 0.140482,-0.39301 0.290545,-0.61098 0.488909,-0.81506 0,0 0,0 0,0 0,0 0,0 0,0 0.079,-0.081 0.168985,-0.16294 0.271899,-0.25326 z m 0.660227,-0.60379 c -0.105932,0.43092 -0.2421,0.6232 -0.245458,0.84607 -0.006,0.39753 0.08985,0.56909 0.06379,0.7439 0,0 0,0 0,0 -0.02313,0.15283 -0.129727,0.29344 -0.433806,0.59621 -0.09271,-0.47382 -0.393343,-0.72768 -0.214398,-1.15797 0.0071,-0.0171 0.01426,-0.034 0.0214,-0.0504 0,0 0,0 0,0 0.2155,-0.49451 0.442782,-0.69774 0.808472,-0.97781 z m 0.705381,-0.55816 c -0.139889,0.42241 -0.288752,0.60493 -0.307162,0.82709 -0.06449,0.77808 0.27516,0.66883 -0.446667,1.31695 -0.06898,-0.47654 -0.356573,-0.75368 -0.149944,-1.17179 0.255672,-0.51738 0.506527,-0.71304 0.903773,-0.97225 z m 0.751844,-0.50244 c -0.177416,0.41023 -0.339853,0.58035 -0.375416,0.80022 -0.125996,0.77894 0.22774,0.67572 -0.53388,1.28007 -0.04067,-0.47709 -0.30823,-0.77754 -0.07231,-1.17863 0.292438,-0.49722 0.563442,-0.67663 0.981606,-0.90166 z m 0.802441,-0.43625 c -0.0959,0.16764 -0.173229,0.2825 -0.246283,0.38911 -0.09797,0.14303 -0.175012,0.25087 -0.206761,0.37597 -0.196448,0.77404 0.173456,0.68094 -0.630812,1.22959 -0.0077,-0.4748 -0.249878,-0.79916 0.01756,-1.1786 0.238387,-0.33825 0.45375,-0.51147 0.702196,-0.64664 0,0 0,0 0,0 0,0 0,0 0,0 0.106044,-0.0576 0.226611,-0.11255 0.364104,-0.16943 z m 1.039783,0.19912 c -1.36e-4,-5.4e-4 -3.16e-4,-0.001 -5.4e-4,-0.002 0,0 -1e-6,0 -1e-6,0 -0.02063,-0.0471 -0.04088,-0.0923 -0.0604,-0.13545 -0.05443,-0.12039 -0.104962,-0.22687 -0.151901,-0.32138 l 0,0 0,0 c -0.07737,0.0791 -0.167532,0.17381 -0.219338,0.22872 l 0,0 0,0 c -0.137556,0.15144 -0.242742,0.26104 -0.292313,0.39364 -0.144757,0.3872 -0.09236,0.5798 -0.178329,0.74056 0,0 0,0 0,0 0,0 0,0 0,0 -0.0706,0.13191 -0.209227,0.22527 -0.56012,0.42357 0.02984,-0.46983 -0.181482,-0.81841 0.119654,-1.17169 0.0081,-0.009 0.01615,-0.0188 0.02418,-0.028 0.274702,-0.31451 0.52082,-0.4628 0.809381,-0.56701 l 0,0 c 0,0 0,0 0,0 l 0,0 c 0.08302,-0.0295 0.176456,-0.058 0.279497,-0.0844 l 0,0 c 0.05508,0.12457 0.111324,0.25213 0.167976,0.38104 0.04189,0.0953 0.01983,0.0451 0.06172,0.14038 2.25e-4,5.1e-4 4.05e-4,0.001 5.41e-4,0.002 z"
       id="path846"
       inkscape:path-effect="#path-effect958"
       inkscape:original-d="m 14.63363,164.14038 c 3.060606,-13.87526 9.906505,-15.48873 9.906505,-15.48873"
       class="UnoptimicedTransforms"
       sodipodi:nodetypes="cc"
       transform="translate(-3.717155,2.8109747)" />
    <path
       style="fill:none;fill-rule:evenodd;stroke:#000000;stroke-width:0.264999;stroke-linecap:round;stroke-linejoin:round;stroke-dasharray:none;stroke-opacity:1;stop-color:#000000"
       d="m 29.464274,119.07063 c -0.3398,0.25873 -0.567482,0.30356 -0.720718,0.46203 -0.50559,0.52285 -0.275885,0.71822 -1.225166,0.66531 0.307831,-0.39775 0.266199,-0.77245 0.698217,-0.94839 0.528941,-0.21543 0.78473,-0.20498 1.247667,-0.17895 z"
       id="path848"
       class="UnoptimicedTransforms"
       sodipodi:nodetypes="cscsc"
       transform="translate(-17.144401,28.160999)" />
    <path
       style="fill:none;fill-rule:evenodd;stroke:#000000;stroke-width:0.264999;stroke-linecap:round;stroke-linejoin:round;stroke-dasharray:none;stroke-opacity:1;stop-color:#000000"
       d="m 9.4872811,142.75007 c -0.052807,1.16635 -0.052807,1.13358 -0.052807,1.13358 l 1.4738459,0.0265 -1.3659253,-1.15992 h 1.3583243 l 0.0217,1.11503"
       id="path1121"
       sodipodi:nodetypes="cccccc"
       class="UnoptimicedTransforms" />
    <path
       style="fill:none;fill-rule:evenodd;stroke:#000000;stroke-width:0.264999;stroke-linecap:round;stroke-linejoin:round;stroke-dasharray:none;stroke-opacity:1;stop-color:#000000"
       d="m 12.118744,145.15025 c 0.71054,0.9264 0.691956,0.89941 0.691956,0.89941 0.371742,-0.30466 0.755262,-0.59408 1.149202,-0.86829 -0.586671,-0.0521 -1.186133,-0.0756 -1.797223,-0.0678 0.36052,-0.3022 0.73145,-0.59095 1.111729,-0.86621 0.223803,0.2963 0.447269,0.59285 0.670398,0.88965 m -0.691893,-0.87426 c 0.640185,0.97488 0.623513,0.94664 0.623513,0.94664 0.393236,-0.27635 0.796971,-0.53747 1.209847,-0.78338 -0.5821,-0.0933 -1.178146,-0.1597 -1.786974,-0.19664 0.380686,-0.27467 0.770698,-0.53585 1.168973,-0.78352 0.202367,0.31137 0.404396,0.62297 0.606087,0.93478 m -0.628587,-0.92096 c 0.569915,1.01769 0.55516,0.98837 0.55516,0.98837 0.412322,-0.24801 0.833865,-0.4808 1.263271,-0.69839 -0.575243,-0.13255 -1.165586,-0.24011 -1.769864,-0.31998 0.398635,-0.24708 0.805511,-0.48064 1.219566,-0.70064 0.18084,0.32464 0.361341,0.64948 0.541503,0.9745 m -0.564884,-0.96224 c 0.49973,1.05482 0.486897,1.02457 0.486897,1.02457 0.429002,-0.21964 0.865946,-0.42407 1.309474,-0.6133 -0.566099,-0.17005 -1.148451,-0.31691 -1.745892,-0.43791 0.414367,-0.21941 0.83589,-0.42527 1.263507,-0.61755 0.159223,0.33611 0.318105,0.67238 0.476647,1.00882 m -0.500782,-0.99812 c 0.429628,1.08628 0.418721,1.05527 0.418721,1.05527 0.443275,-0.19125 0.893214,-0.36728 1.348457,-0.52813 -0.554667,-0.20573 -1.126741,-0.39009 -1.715059,-0.5504 0.427882,-0.19168 0.861836,-0.36978 1.300799,-0.53425 0.137514,0.34577 0.274686,0.69167 0.411517,1.03771 m -0.436284,-1.02859 c 0.359612,1.11206 0.350637,1.08045 0.350637,1.08045 0.455141,-0.16282 0.915667,-0.31042 1.380219,-0.44285 -0.540949,-0.2396 -1.100458,-0.45966 -1.677365,-0.65747 0.43918,-0.16388 0.883347,-0.31414 1.331438,-0.45075 0.115715,0.35362 0.231087,0.70736 0.346116,1.06119 m -0.371388,-1.05364 c 0.28968,1.13217 0.282641,1.10011 0.282641,1.10011 0.428462,-0.1239 0.860416,-0.23488 1.294796,-0.33295 0.03668,-0.008 0.07338,-0.0164 0.110097,-0.0245 -0.04411,-0.0228 -0.08835,-0.0455 -0.132723,-0.0681 -0.483909,-0.24612 -0.98428,-0.47717 -1.500219,-0.69107 0.412937,-0.1253 0.829185,-0.23901 1.247913,-0.34111 0.03578,-0.009 0.07158,-0.0174 0.107399,-0.026 0.09389,0.3597 0.187459,0.7195 0.280695,1.07938 m -0.306323,-1.07339 c 0.220072,1.14673 0.214857,1.11433 0.214857,1.11433 0.472209,-0.10566 0.947036,-0.19666 1.423512,-0.27152 -0.507138,-0.30337 -1.036066,-0.58886 -1.582998,-0.85592 0.454736,-0.10845 0.913082,-0.2039 1.374344,-0.28515 0.07187,0.36475 0.143387,0.72957 0.214537,1.09446 m -0.240533,-1.09002 c 0.14997,1.15799 0.146936,1.12532 0.146936,1.12532 0.476827,-0.0768 0.955384,-0.13761 1.434701,-0.18084 -0.485154,-0.33615 -0.994903,-0.65441 -1.525461,-0.95421 0.461388,-0.0806 0.925677,-0.14703 1.39217,-0.198 0.04779,0.36865 0.09519,0.73735 0.142196,1.1061 m -0.168477,-1.10337 c 0.07364,1.16526 0.07297,1.13242 0.07297,1.13242 0.09809,-0.009 0.196224,-0.0178 0.294381,-0.0256 0,0 0,0 0,0 0.288523,-0.0229 0.575289,-0.0394 0.859895,-0.0461 0,0 0,0 0,0 0.0094,-0.0276 0.01702,-0.0547 0.02285,-0.0808 0.01576,-2.6e-4 0.03153,-4.7e-4 0.04729,-5.9e-4 -0.01121,-0.0116 -0.02246,-0.0231 -0.03375,-0.0346 0.01094,-0.0328 -0.005,-0.0734 -0.04646,-0.12238 -0.300306,-0.23823 -0.618328,-0.46575 -0.944927,-0.68554 0,0 0,0 0,0 -0.07134,-0.048 -0.143155,-0.0956 -0.215448,-0.1429 0.06643,-0.007 0.132906,-0.014 0.199424,-0.0205 l 0,0 c 0.304523,-0.0299 0.612024,-0.0532 0.922289,-0.0664 l 1e-6,0 c 0.1511,0.0225 0.303517,0.0458 0.457243,0.0703 0.0144,-5e-5 0.02879,-6e-5 0.04319,-2e-5 -0.115567,0.31704 -0.231625,0.63391 -0.348172,0.9506 -0.0015,0.004 -0.0031,0.008 -0.0046,0.0125 m 0.326189,-0.96321 c -0.0083,0.0189 -0.124559,0.28353 -0.132865,0.30238 0,0 0,0 0,0 -0.318986,0.69352 -0.265441,0.69058 -0.265441,0.69058 0.0015,-0.004 0.0029,-0.008 0.0043,-0.0117 0,0 0,0 0,0 0.02024,-3.2e-4 0.04049,-5.6e-4 0.06073,-6.4e-4 0.0075,-3e-5 0.01509,-5e-5 0.02257,1e-5 0.313279,0.31101 0.625759,0.62175 0.937556,0.93223 -0.1537,-0.62138 -0.339625,-1.25515 -0.557777,-1.90133 -0.0039,-0.004 -0.0077,-0.007 -0.01156,-0.0112 0.0053,5e-5 0.01053,1.2e-4 0.01575,2.1e-4 l 1.037648,0.94353 c -0.151227,0.31387 -0.302957,0.62755 -0.455191,0.94103 m 0.435569,-0.95907 c -0.531026,0.93263 -0.513518,0.90682 -0.513518,0.90682 0.341027,0.33906 0.681241,0.6778 1.020643,1.01624 -0.12193,-0.6154 -0.276805,-1.24347 -0.464625,-1.88421 l 1.049115,0.95406 c -0.183408,0.30149 -0.367319,0.60278 -0.551733,0.90388 m 0.532124,-0.92191 c -0.632011,0.89377 -0.611666,0.86905 -0.611666,0.86905 0.340262,0.33877 0.679711,0.67722 1.018349,1.01536 -0.08845,-0.60252 -0.209853,-1.21771 -0.364196,-1.84558 l 1.049114,0.95407 c -0.215589,0.2891 -0.43168,0.57802 -0.648275,0.86674 m 0.62868,-0.88477 c -0.732997,0.85492 -0.709814,0.8313 -0.709814,0.8313 0.339497,0.33847 0.678182,0.67663 1.016054,1.01447 -0.05498,-0.58964 -0.142899,-1.19195 -0.263767,-1.80694 l 1.049114,0.95406 c -0.247769,0.27673 -0.496041,0.55327 -0.744817,0.82961"
       id="path1123"
       inkscape:path-effect="#path-effect1149"
       inkscape:original-d="m 12.452349,145.62777 c 5.855776,-4.97387 12.955612,-4.92976 12.955612,-4.92976 l 4.070255,3.80642"
       class="UnoptimicedTransforms" />
  </g>
</svg>
